<?xml version="1.0" encoding="UTF-8" standalone="no"?>
<svg
   xmlns:dc="http://purl.org/dc/elements/1.1/"
   xmlns:cc="http://creativecommons.org/ns#"
   xmlns:rdf="http://www.w3.org/1999/02/22-rdf-syntax-ns#"
   xmlns:svg="http://www.w3.org/2000/svg"
   xmlns="http://www.w3.org/2000/svg"
   xmlns:xlink="http://www.w3.org/1999/xlink"
   xmlns:sodipodi="http://sodipodi.sourceforge.net/DTD/sodipodi-0.dtd"
   xmlns:inkscape="http://www.inkscape.org/namespaces/inkscape"
   width="685"
   height="703"
   class="container"
   id="svg2"
   version="1.1"
   inkscape:version="0.48.4 r9939"
   sodipodi:docname="topology.svg">
  <metadata
     id="metadata177">
    <rdf:RDF>
      <cc:Work
         rdf:about="">
        <dc:format>image/svg+xml</dc:format>
        <dc:type
           rdf:resource="http://purl.org/dc/dcmitype/StillImage" />
      </cc:Work>
    </rdf:RDF>
  </metadata>
  <defs
     id="defs175">
    <linearGradient
       inkscape:collect="always"
       id="linearGradient3930">
      <stop
         style="stop-color:#0d0000;stop-opacity:1;"
         offset="0"
         id="stop3932" />
      <stop
         style="stop-color:#0d0000;stop-opacity:0;"
         offset="1"
         id="stop3934" />
    </linearGradient>
    <linearGradient
       inkscape:collect="always"
       xlink:href="#linearGradient3930"
       id="linearGradient3936"
       x1="-125.06351"
       y1="167.0955"
       x2="-112.54496"
       y2="167.0955"
       gradientUnits="userSpaceOnUse" />
  </defs>
  <sodipodi:namedview
     pagecolor="#ffffff"
     bordercolor="#666666"
     borderopacity="1"
     objecttolerance="10"
     gridtolerance="10"
     guidetolerance="10"
     inkscape:pageopacity="0"
     inkscape:pageshadow="2"
     inkscape:window-width="2560"
     inkscape:window-height="1412"
     id="namedview173"
     showgrid="false"
     inkscape:zoom="1.8990293"
     inkscape:cx="249.82107"
     inkscape:cy="351.5"
     inkscape:window-x="2560"
     inkscape:window-y="0"
     inkscape:window-maximized="1"
     inkscape:current-layer="svg2" />
  <line
     stroke-width="1"
     stroke="black"
     class="link"
     x1="204"
     x2="196"
     y1="137"
     y2="234"
     data-length="97.32933781753577"
     id="line4" />
  <line
     class="link"
     x1="236.31224"
     x2="389.52621"
     y1="137.31224"
     y2="234.21434"
     data-length="113.01769772916099"
     id="line6"
     style="stroke:#000000;stroke-width:1.62448573" />
  <line
     stroke-width="1"
     stroke="black"
     class="link"
     x1="188"
     x2="98"
     y1="137"
     y2="234"
     data-length="132.32157798333574"
     id="line8" />
  <line
     class="link"
     x1="218.78398"
     x2="295.85101"
     y1="136.31056"
     y2="234.16287"
     data-length="196.596032513375"
     id="line10"
     style="stroke:#000000;stroke-width:0.67427331" />
  <line
     stroke-width="1"
     stroke="black"
     class="link"
     x1="253"
     x2="481"
     y1="137"
     y2="234"
     data-length="247.7761086142084"
     id="line12" />
  <line
     stroke-width="1"
     stroke="black"
     class="link"
     x1="269"
     x2="579"
     y1="137"
     y2="234"
     data-length="324.82148943689054"
     id="line14" />
  <line
     class="link"
     x1="204.08722"
     x2="285.55594"
     y1="312.08722"
     y2="468.91278"
     data-length="167.72000476985446"
     id="line16"
     style="stroke:#000000;stroke-width:1.1744324" />
  <line
     stroke-width="1"
     stroke="black"
     class="link"
     x1="188"
     x2="148"
     y1="312"
     y2="469"
     data-length="162.0154313638056"
     id="line18" />
  <line
     class="link"
     x1="90.476578"
     x2="125.28114"
     y1="312.21686"
     y2="469.83636"
     data-length="157.91770008456936"
     id="line20"
     style="stroke:#000000;stroke-width:1.4336673" />
  <line
     class="link"
     x1="107.47807"
     x2="262.4483"
     y1="314.09668"
     y2="469.00967"
     data-length="223.45021816950637"
     id="line22"
     style="stroke:#000000;stroke-width:0.9806627" />
  <line
     class="link"
     x1="288.32123"
     x2="400.20126"
     y1="313.90509"
     y2="469.20126"
     data-length="347.48956818874433"
     id="line24"
     style="stroke:#000000;stroke-width:0.59748363" />
  <line
     class="link"
     x1="305.44131"
     x2="537.13434"
     y1="312.91885"
     y2="469.13431"
     data-length="458.7046980356752"
     id="line26"
     style="stroke:#000000;stroke-width:0.73135799" />
  <line
     stroke-width="1"
     stroke="black"
     class="link"
     x1="383"
     x2="422"
     y1="312"
     y2="469"
     data-length="161.7714437099453"
     id="line28" />
  <line
     stroke-width="1"
     stroke="black"
     class="link"
     x1="400"
     x2="559"
     y1="312"
     y2="469"
     data-length="223.45021816950637"
     id="line30" />
  <line
     stroke-width="1"
     stroke="black"
     class="link"
     x1="497"
     x2="438"
     y1="234"
     y2="137"
     data-length="113.53413583587978"
     id="line32" />
  <line
     stroke-width="1"
     stroke="black"
     class="link"
     x1="595"
     x2="476"
     y1="234"
     y2="137"
     data-length="153.52524222420234"
     id="line34" />
  <g
     class="node"
     transform="translate(228,59)"
     id="g36">
    <rect
       x="-57"
       y="0"
       width="114"
       height="78"
       stroke="black"
       stroke-width="2"
       fill="none"
       id="rect38" />
    <text
       class="devicename"
       y="0"
       x="0"
       text-anchor="middle"
       fill="black"
       font-size="12px"
       transform="translate(0,45.421878814697266)"
       id="text40">spine1</text>
    <circle
       cx="-24"
       cy="78"
       r="2"
       id="circle42"
       d="m -22,78 c 0,1.104569 -0.895431,2 -2,2 -1.104569,0 -2,-0.895431 -2,-2 0,-1.104569 0.895431,-2 2,-2 1.104569,0 2,0.895431 2,2 z" />
    <circle
       cx="8"
       cy="78"
       r="2"
       id="circle44"
       d="m 10,78 c 0,1.104569 -0.8954305,2 -2,2 -1.1045695,0 -2,-0.895431 -2,-2 0,-1.104569 0.8954305,-2 2,-2 1.1045695,0 2,0.895431 2,2 z" />
    <circle
       cx="-41"
       cy="78"
       r="2"
       id="circle46"
       d="m -39,78 c 0,1.104569 -0.895431,2 -2,2 -1.104569,0 -2,-0.895431 -2,-2 0,-1.104569 0.895431,-2 2,-2 1.104569,0 2,0.895431 2,2 z" />
    <circle
       cx="-8"
       cy="78"
       r="2"
       id="circle48"
       d="m -6,78 c 0,1.104569 -0.8954305,2 -2,2 -1.1045695,0 -2,-0.895431 -2,-2 0,-1.104569 0.8954305,-2 2,-2 1.1045695,0 2,0.895431 2,2 z" />
    <circle
       cx="24"
       cy="78"
       r="2"
       id="circle50"
       d="m 26,78 c 0,1.104569 -0.895431,2 -2,2 -1.104569,0 -2,-0.895431 -2,-2 0,-1.104569 0.895431,-2 2,-2 1.104569,0 2,0.895431 2,2 z" />
    <circle
       cx="41"
       cy="78"
       r="2"
       id="circle52"
       d="m 43,78 c 0,1.104569 -0.895431,2 -2,2 -1.104569,0 -2,-0.895431 -2,-2 0,-1.104569 0.895431,-2 2,-2 1.104569,0 2,0.895431 2,2 z" />
  </g>
  <g
     class="node"
     transform="translate(457,59)"
     id="g54">
    <rect
       x="-57"
       y="0"
       width="114"
       height="78"
       stroke="black"
       stroke-width="2"
       fill="none"
       id="rect56" />
    <text
       class="devicename"
       y="0"
       x="0"
       text-anchor="middle"
       fill="black"
       font-size="12px"
       transform="translate(0,45.421878814697266)"
       id="text58">ext_rtr</text>
    <circle
       cx="-19"
       cy="78"
       r="2"
       id="circle60"
       d="m -17,78 c 0,1.104569 -0.895431,2 -2,2 -1.104569,0 -2,-0.895431 -2,-2 0,-1.104569 0.895431,-2 2,-2 1.104569,0 2,0.895431 2,2 z" />
    <circle
       cx="19"
       cy="78"
       r="2"
       id="circle62"
       d="m 21,78 c 0,1.104569 -0.895431,2 -2,2 -1.104569,0 -2,-0.895431 -2,-2 0,-1.104569 0.895431,-2 2,-2 1.104569,0 2,0.895431 2,2 z" />
  </g>
  <g
     class="node"
     transform="translate(97.528639,233.47342)"
     id="g64">
    <rect
       x="-24"
       y="0"
       width="49"
       height="78"
       id="rect66"
       style="fill:none;stroke:#000000;stroke-width:2" />
    <text
       class="devicename"
       y="0"
       x="0"
       font-size="12px"
       transform="translate(0,45.421879)"
       id="text68"
       style="font-size:12px;text-anchor:middle;fill:#000000">leaf1</text>
    <circle
       cx="0"
       cy="0"
       r="2"
       id="circle70"
       d="M 2,0 C 2,1.1045695 1.1045695,2 0,2 -1.1045695,2 -2,1.1045695 -2,0 c 0,-1.1045695 0.8954305,-2 2,-2 1.1045695,0 2,0.8954305 2,2 z"
       sodipodi:cx="0"
       sodipodi:cy="0"
       sodipodi:rx="2"
       sodipodi:ry="2" />
    <circle
       cx="8"
       cy="78"
       r="2"
       id="circle72"
       d="m 10,78 c 0,1.104569 -0.8954305,2 -2,2 -1.1045695,0 -2,-0.895431 -2,-2 0,-1.104569 0.8954305,-2 2,-2 1.1045695,0 2,0.895431 2,2 z"
       sodipodi:cx="8"
       sodipodi:cy="78"
       sodipodi:rx="2"
       sodipodi:ry="2" />
    <circle
       cx="-8"
       cy="78"
       r="2"
       id="circle74"
       d="m -6,78 c 0,1.104569 -0.8954305,2 -2,2 -1.1045695,0 -2,-0.895431 -2,-2 0,-1.104569 0.8954305,-2 2,-2 1.1045695,0 2,0.895431 2,2 z"
       sodipodi:cx="-8"
       sodipodi:cy="78"
       sodipodi:rx="2"
       sodipodi:ry="2" />
  </g>
  <g
     class="node"
     transform="translate(196.05522,232.94683)"
     id="g76">
    <rect
       x="-24"
       y="0"
       width="49"
       height="78"
       id="rect78"
       style="fill:none;stroke:#000000;stroke-width:2" />
    <text
       class="devicename"
       y="0"
       x="0"
       font-size="12px"
       transform="translate(0,45.421879)"
       id="text80"
       style="font-size:12px;text-anchor:middle;fill:#000000">leaf2</text>
    <circle
       cx="0"
       cy="0"
       r="2"
       id="circle82"
       d="M 2,0 C 2,1.1045695 1.1045695,2 0,2 -1.1045695,2 -2,1.1045695 -2,0 c 0,-1.1045695 0.8954305,-2 2,-2 1.1045695,0 2,0.8954305 2,2 z"
       sodipodi:cx="0"
       sodipodi:cy="0"
       sodipodi:rx="2"
       sodipodi:ry="2" />
    <circle
       cx="8"
       cy="78"
       r="2"
       id="circle84"
       d="m 10,78 c 0,1.104569 -0.8954305,2 -2,2 -1.1045695,0 -2,-0.895431 -2,-2 0,-1.104569 0.8954305,-2 2,-2 1.1045695,0 2,0.895431 2,2 z"
       sodipodi:cx="8"
       sodipodi:cy="78"
       sodipodi:rx="2"
       sodipodi:ry="2" />
    <circle
       cx="-8"
       cy="78"
       r="2"
       id="circle86"
       d="m -6,78 c 0,1.104569 -0.8954305,2 -2,2 -1.1045695,0 -2,-0.895431 -2,-2 0,-1.104569 0.8954305,-2 2,-2 1.1045695,0 2,0.895431 2,2 z"
       sodipodi:cx="-8"
       sodipodi:cy="78"
       sodipodi:rx="2"
       sodipodi:ry="2" />
  </g>
  <g
     class="node"
     transform="translate(294.94273,234)"
     id="g88">
    <rect
       x="-24"
       y="0"
       width="49"
       height="78"
       id="rect90"
       style="fill:none;stroke:#000000;stroke-width:2" />
    <text
       class="devicename"
       y="0"
       x="0"
       font-size="12px"
       transform="translate(0,45.421879)"
       id="text92"
       style="font-size:12px;text-anchor:middle;fill:#000000">leaf3</text>
    <circle
       cx="0"
       cy="0"
       r="2"
       id="circle94"
       d="M 2,0 C 2,1.1045695 1.1045695,2 0,2 -1.1045695,2 -2,1.1045695 -2,0 c 0,-1.1045695 0.8954305,-2 2,-2 1.1045695,0 2,0.8954305 2,2 z"
       sodipodi:cx="0"
       sodipodi:cy="0"
       sodipodi:rx="2"
       sodipodi:ry="2" />
    <circle
       cx="-8"
       cy="78"
       r="2"
       id="circle96"
       d="m -6,78 c 0,1.104569 -0.8954305,2 -2,2 -1.1045695,0 -2,-0.895431 -2,-2 0,-1.104569 0.8954305,-2 2,-2 1.1045695,0 2,0.895431 2,2 z"
       sodipodi:cx="-8"
       sodipodi:cy="78"
       sodipodi:rx="2"
       sodipodi:ry="2" />
    <circle
       cx="8"
       cy="78"
       r="2"
       id="circle98"
       d="m 10,78 c 0,1.104569 -0.8954305,2 -2,2 -1.1045695,0 -2,-0.895431 -2,-2 0,-1.104569 0.8954305,-2 2,-2 1.1045695,0 2,0.895431 2,2 z"
       sodipodi:cx="8"
       sodipodi:cy="78"
       sodipodi:rx="2"
       sodipodi:ry="2" />
  </g>
  <g
     class="node"
     transform="translate(391,234)"
     id="g100">
    <rect
       x="-24"
       y="0"
       width="49"
       height="78"
       stroke="black"
       stroke-width="2"
       fill="none"
       id="rect102" />
    <text
       class="devicename"
       y="0"
       x="0"
       text-anchor="middle"
       fill="black"
       font-size="12px"
       transform="translate(0,45.421878814697266)"
       id="text104">leaf4</text>
    <circle
       cx="0"
       cy="0"
       r="2"
       id="circle106"
       d="M 2,0 C 2,1.1045695 1.1045695,2 0,2 -1.1045695,2 -2,1.1045695 -2,0 c 0,-1.1045695 0.8954305,-2 2,-2 1.1045695,0 2,0.8954305 2,2 z" />
    <circle
       cx="-8"
       cy="78"
       r="2"
       id="circle108"
       d="m -6,78 c 0,1.104569 -0.8954305,2 -2,2 -1.1045695,0 -2,-0.895431 -2,-2 0,-1.104569 0.8954305,-2 2,-2 1.1045695,0 2,0.895431 2,2 z" />
    <circle
       cx="8"
       cy="78"
       r="2"
       id="circle110"
       d="m 10,78 c 0,1.104569 -0.8954305,2 -2,2 -1.1045695,0 -2,-0.895431 -2,-2 0,-1.104569 0.8954305,-2 2,-2 1.1045695,0 2,0.895431 2,2 z" />
  </g>
  <g
     class="node"
     transform="translate(489,234)"
     id="g112">
    <rect
       x="-24"
       y="0"
       width="49"
       height="78"
       stroke="black"
       stroke-width="2"
       fill="none"
       id="rect114" />
    <text
       class="devicename"
       y="0"
       x="0"
       text-anchor="middle"
       fill="black"
       font-size="12px"
       transform="translate(0,44.421878814697266)"
       id="text116">leaf5</text>
    <circle
       cx="-8"
       cy="0"
       r="2"
       id="circle118"
       d="m -6,0 c 0,1.1045695 -0.8954305,2 -2,2 -1.1045695,0 -2,-0.8954305 -2,-2 0,-1.1045695 0.8954305,-2 2,-2 1.1045695,0 2,0.8954305 2,2 z" />
    <circle
       cx="8"
       cy="0"
       r="2"
       id="circle120"
       d="M 10,0 C 10,1.1045695 9.1045695,2 8,2 6.8954305,2 6,1.1045695 6,0 c 0,-1.1045695 0.8954305,-2 2,-2 1.1045695,0 2,0.8954305 2,2 z" />
  </g>
  <g
     class="node"
     transform="translate(587,234)"
     id="g122">
    <rect
       x="-24"
       y="0"
       width="49"
       height="78"
       stroke="black"
       stroke-width="2"
       fill="none"
       id="rect124" />
    <text
       class="devicename"
       y="0"
       x="0"
       text-anchor="middle"
       fill="black"
       font-size="12px"
       transform="translate(0,44.421878814697266)"
       id="text126">leaf6</text>
    <circle
       cx="-8"
       cy="0"
       r="2"
       id="circle128"
       d="m -6,0 c 0,1.1045695 -0.8954305,2 -2,2 -1.1045695,0 -2,-0.8954305 -2,-2 0,-1.1045695 0.8954305,-2 2,-2 1.1045695,0 2,0.8954305 2,2 z" />
    <circle
       cx="8"
       cy="0"
       r="2"
       id="circle130"
       d="M 10,0 C 10,1.1045695 9.1045695,2 8,2 6.8954305,2 6,1.1045695 6,0 c 0,-1.1045695 0.8954305,-2 2,-2 1.1045695,0 2,0.8954305 2,2 z" />
  </g>
  <g
     class="node"
     transform="translate(274,469.52658)"
     id="g132">
    <rect
       x="-34"
       y="0"
       width="69"
       height="78"
       id="rect134"
       style="fill:none;stroke:#000000;stroke-width:2" />
    <text
       class="devicename"
       y="0"
       x="0"
       font-size="12px"
       transform="translate(0,44.421879)"
       id="text136"
       style="font-size:12px;text-anchor:middle;fill:#000000">server1</text>
    <circle
       cx="-11"
       cy="0"
       r="2"
       id="circle138"
       d="m -9,0 c 0,1.1045695 -0.8954305,2 -2,2 -1.104569,0 -2,-0.8954305 -2,-2 0,-1.1045695 0.895431,-2 2,-2 1.1045695,0 2,0.8954305 2,2 z"
       sodipodi:cx="-11"
       sodipodi:cy="0"
       sodipodi:rx="2"
       sodipodi:ry="2" />
    <circle
       cx="11"
       cy="0"
       r="2"
       id="circle140"
       d="M 13,0 C 13,1.1045695 12.104569,2 11,2 9.8954305,2 9,1.1045695 9,0 c 0,-1.1045695 0.8954305,-2 2,-2 1.104569,0 2,0.8954305 2,2 z"
       sodipodi:cx="11"
       sodipodi:cy="0"
       sodipodi:rx="2"
       sodipodi:ry="2" />
  </g>
  <g
     class="node"
     transform="translate(137,469)"
     id="g142">
    <rect
       x="-34"
       y="0"
       width="69"
       height="78"
       stroke="black"
       stroke-width="2"
       fill="none"
       id="rect144" />
    <text
       class="devicename"
       y="0"
       x="0"
       text-anchor="middle"
       fill="black"
       font-size="12px"
       transform="translate(0,44.421878814697266)"
       id="text146">server2</text>
    <circle
       cx="11"
       cy="0"
       r="2"
       id="circle148"
       d="M 13,0 C 13,1.1045695 12.104569,2 11,2 9.8954305,2 9,1.1045695 9,0 c 0,-1.1045695 0.8954305,-2 2,-2 1.104569,0 2,0.8954305 2,2 z" />
    <circle
       cx="-11"
       cy="0"
       r="2"
       id="circle150"
       d="m -9,0 c 0,1.1045695 -0.8954305,2 -2,2 -1.104569,0 -2,-0.8954305 -2,-2 0,-1.1045695 0.895431,-2 2,-2 1.1045695,0 2,0.8954305 2,2 z" />
  </g>
  <g
     class="node"
     transform="translate(411,469)"
     id="g152">
    <rect
       x="-34"
       y="0"
       width="69"
       height="78"
       stroke="black"
       stroke-width="2"
       fill="none"
       id="rect154" />
    <text
       class="devicename"
       y="0"
       x="0"
       text-anchor="middle"
       fill="black"
       font-size="12px"
       transform="translate(0,44.421878814697266)"
       id="text156">server3</text>
    <circle
       cx="-11"
       cy="0"
       r="2"
       id="circle158"
       d="m -9,0 c 0,1.1045695 -0.8954305,2 -2,2 -1.104569,0 -2,-0.8954305 -2,-2 0,-1.1045695 0.895431,-2 2,-2 1.1045695,0 2,0.8954305 2,2 z" />
    <circle
       cx="11"
       cy="0"
       r="2"
       id="circle160"
       d="M 13,0 C 13,1.1045695 12.104569,2 11,2 9.8954305,2 9,1.1045695 9,0 c 0,-1.1045695 0.8954305,-2 2,-2 1.104569,0 2,0.8954305 2,2 z" />
  </g>
  <g
     class="node"
     transform="translate(548,469)"
     id="g162">
    <rect
       x="-34"
       y="0"
       width="69"
       height="78"
       stroke="black"
       stroke-width="2"
       fill="none"
       id="rect164" />
    <text
       class="devicename"
       y="0"
       x="0"
       text-anchor="middle"
       fill="black"
       font-size="12px"
       transform="translate(0,44.421878814697266)"
       id="text166">server4</text>
    <circle
       cx="-11"
       cy="0"
       r="2"
       id="circle168"
       d="m -9,0 c 0,1.1045695 -0.8954305,2 -2,2 -1.104569,0 -2,-0.8954305 -2,-2 0,-1.1045695 0.895431,-2 2,-2 1.1045695,0 2,0.8954305 2,2 z" />
    <circle
       cx="11"
       cy="0"
       r="2"
       id="circle170"
       d="M 13,0 C 13,1.1045695 12.104569,2 11,2 9.8954305,2 9,1.1045695 9,0 c 0,-1.1045695 0.8954305,-2 2,-2 1.104569,0 2,0.8954305 2,2 z" />
  </g>
  <text
     class="hidden"
     id="minlinklength">97.32933781753577</text>
  <rect
     style="fill:#eafff3;fill-opacity:1;stroke:none;stroke-width:1.16900003000000008;stroke-linecap:square;stroke-linejoin:bevel;stroke-miterlimit:4;stroke-opacity:1;stroke-dasharray:none"
     id="rect3940"
     width="16.324129"
     height="9.4785271"
     x="-126.90694"
     y="162.72398" />
  <text
     xml:space="preserve"
     style="font-size:6px;font-style:normal;font-variant:normal;font-weight:normal;font-stretch:normal;line-height:125%;letter-spacing:0px;word-spacing:0px;fill:#1f0000;fill-opacity:1;stroke:none;font-family:Droid Sans;-inkscape-font-specification:Droid Sans"
     x="-125.32719"
     y="168.51642"
     id="text3158"
     sodipodi:linespacing="125%"><tspan
       sodipodi:role="line"
       id="tspan3160"
       x="-125.32719"
       y="168.51642"
       style="fill:#1f0000;fill-opacity:1">swp1</tspan></text>
  <rect
     style="fill:#e50000;fill-opacity:1;stroke:none"
     id="rect3942"
     width="2.6329241"
     height="0.5265848"
     x="-105.84355"
     y="172.7291" />
  <rect
     style="fill:#eafff3;fill-opacity:1;stroke:none"
     id="rect3940-7"
     width="16.324129"
     height="9.4785271"
     x="-102.42075"
     y="172.2025" />
  <text
     xml:space="preserve"
     style="font-size:6px;font-style:normal;font-variant:normal;font-weight:normal;font-stretch:normal;line-height:125%;letter-spacing:0px;word-spacing:0px;fill:#1f0000;fill-opacity:1;stroke:none;font-family:Droid Sans;-inkscape-font-specification:Droid Sans"
     x="-100.841"
     y="178.52151"
     id="text3158-4"
     sodipodi:linespacing="125%"><tspan
       sodipodi:role="line"
       id="tspan3160-9"
       x="-100.841"
       y="178.52151"
       style="fill:#1f0000;fill-opacity:1">swp1</tspan></text>
  <rect
     style="fill:#eafff3;fill-opacity:1;stroke:none"
     id="rect3940-8"
     width="16.324129"
     height="9.4785271"
     x="-104.0005"
     y="225.91415" />
  <text
     xml:space="preserve"
     style="font-size:6px;font-style:normal;font-variant:normal;font-weight:normal;font-stretch:normal;line-height:125%;letter-spacing:0px;word-spacing:0px;fill:#1f0000;fill-opacity:1;stroke:none;font-family:Droid Sans;-inkscape-font-specification:Droid Sans"
     x="-102.42075"
     y="232.23317"
     id="text3158-3"
     sodipodi:linespacing="125%"><tspan
       sodipodi:role="line"
       id="tspan3160-2"
       x="-102.42075"
       y="232.23317"
       style="fill:#1f0000;fill-opacity:1">swp1</tspan></text>
  <rect
     style="fill:#eafff3;fill-opacity:1;stroke:none"
     id="rect3940-72"
     width="16.324129"
     height="9.4785271"
     x="-124.53731"
     y="210.64319" />
  <text
     xml:space="preserve"
     style="font-size:6px;font-style:normal;font-variant:normal;font-weight:normal;font-stretch:normal;line-height:125%;letter-spacing:0px;word-spacing:0px;fill:#1f0000;fill-opacity:1;stroke:none;font-family:Droid Sans;-inkscape-font-specification:Droid Sans"
     x="-122.95756"
     y="216.9622"
     id="text3158-7"
     sodipodi:linespacing="125%"><tspan
       sodipodi:role="line"
       id="tspan3160-0"
       x="-122.95756"
       y="216.9622"
       style="fill:#1f0000;fill-opacity:1">swp1</tspan></text>
  <rect
     style="fill:#eafff3;fill-opacity:1;stroke:none"
     id="rect3940-0"
     width="16.324129"
     height="9.4785271"
     x="-158.76532"
     y="193.2659" />
  <text
     xml:space="preserve"
     style="font-size:6px;font-style:normal;font-variant:normal;font-weight:normal;font-stretch:normal;line-height:125%;letter-spacing:0px;word-spacing:0px;fill:#1f0000;fill-opacity:1;stroke:none;font-family:Droid Sans;-inkscape-font-specification:Droid Sans"
     x="-157.18558"
     y="199.58492"
     id="text3158-32"
     sodipodi:linespacing="125%"><tspan
       sodipodi:role="line"
       id="tspan3160-4"
       x="-157.18558"
       y="199.58492"
       style="fill:#1f0000;fill-opacity:1">swp1</tspan></text>
  <rect
     style="fill:#eafff3;fill-opacity:1;stroke:none"
     id="rect3940-03"
     width="16.324129"
     height="9.4785271"
     x="-174.03629"
     y="168.5164" />
  <text
     xml:space="preserve"
     style="font-size:6px;font-style:normal;font-variant:normal;font-weight:normal;font-stretch:normal;line-height:125%;letter-spacing:0px;word-spacing:0px;fill:#1f0000;fill-opacity:1;stroke:none;font-family:Droid Sans;-inkscape-font-specification:Droid Sans"
     x="-172.45653"
     y="174.83542"
     id="text3158-6"
     sodipodi:linespacing="125%"><tspan
       sodipodi:role="line"
       id="tspan3160-42"
       x="-172.45653"
       y="174.83542"
       style="fill:#1f0000;fill-opacity:1">swp1</tspan></text>
  <rect
     style="fill:#eafff3;fill-opacity:1;stroke:none"
     id="rect3940-4"
     width="16.324129"
     height="9.4785271"
     x="172.45653"
     y="142.18716" />
  <text
     xml:space="preserve"
     style="font-size:6px;font-style:normal;font-variant:normal;font-weight:normal;font-stretch:normal;line-height:125%;letter-spacing:0px;word-spacing:0px;fill:#1f0000;fill-opacity:1;stroke:none;font-family:Droid Sans;-inkscape-font-specification:Droid Sans"
     x="174.03627"
     y="147.9796"
     id="text3158-9"
     sodipodi:linespacing="125%"><tspan
       sodipodi:role="line"
       id="tspan3160-6"
       x="174.03627"
       y="147.9796"
       style="fill:#1f0000;fill-opacity:1">swp1</tspan></text>
  <rect
     style="fill:#eafff3;fill-opacity:1;stroke:none"
     id="rect3940-03-0"
     width="16.324129"
     height="9.4785271"
     x="194.04649"
     y="141.66058" />
  <text
     xml:space="preserve"
     style="font-size:6px;font-style:normal;font-variant:normal;font-weight:normal;font-stretch:normal;line-height:125%;letter-spacing:0px;word-spacing:0px;fill:#1f0000;fill-opacity:1;stroke:none;font-family:Droid Sans;-inkscape-font-specification:Droid Sans"
     x="195.62625"
     y="147.9796"
     id="text3158-6-8"
     sodipodi:linespacing="125%"><tspan
       sodipodi:role="line"
       id="tspan3160-42-1"
       x="195.62625"
       y="147.9796"
       style="fill:#1f0000;fill-opacity:1">swp1</tspan></text>
  <rect
     style="fill:#eafff3;fill-opacity:1;stroke:none"
     id="rect3940-03-1"
     width="16.324129"
     height="9.4785271"
     x="217.21623"
     y="143.76692" />
  <text
     xml:space="preserve"
     style="font-size:6px;font-style:normal;font-variant:normal;font-weight:normal;font-stretch:normal;line-height:125%;letter-spacing:0px;word-spacing:0px;fill:#1f0000;fill-opacity:1;stroke:none;font-family:Droid Sans;-inkscape-font-specification:Droid Sans"
     x="218.79599"
     y="150.08594"
     id="text3158-6-6"
     sodipodi:linespacing="125%"><tspan
       sodipodi:role="line"
       id="tspan3160-42-18"
       x="218.79599"
       y="150.08594"
       style="fill:#1f0000;fill-opacity:1">swp1</tspan></text>
  <rect
     style="fill:#eafff3;fill-opacity:1;stroke:none"
     id="rect3940-03-04"
     width="16.324129"
     height="9.4785271"
     x="238.80621"
     y="141.134" />
  <text
     xml:space="preserve"
     style="font-size:6px;font-style:normal;font-variant:normal;font-weight:normal;font-stretch:normal;line-height:125%;letter-spacing:0px;word-spacing:0px;fill:#1f0000;fill-opacity:1;stroke:none;font-family:Droid Sans;-inkscape-font-specification:Droid Sans"
     x="240.38597"
     y="147.45302"
     id="text3158-6-64"
     sodipodi:linespacing="125%"><tspan
       sodipodi:role="line"
       id="tspan3160-42-5"
       x="240.38597"
       y="147.45302"
       style="fill:#1f0000;fill-opacity:1">swp1</tspan></text>
  <rect
     style="fill:#eafff3;fill-opacity:1;stroke:none"
     id="rect3940-03-6"
     width="16.324129"
     height="9.4785271"
     x="263.02911"
     y="141.66058" />
  <text
     xml:space="preserve"
     style="font-size:6px;font-style:normal;font-variant:normal;font-weight:normal;font-stretch:normal;line-height:125%;letter-spacing:0px;word-spacing:0px;fill:#1f0000;fill-opacity:1;stroke:none;font-family:Droid Sans;-inkscape-font-specification:Droid Sans"
     x="264.60886"
     y="147.9796"
     id="text3158-6-9"
     sodipodi:linespacing="125%"><tspan
       sodipodi:role="line"
       id="tspan3160-42-7"
       x="264.60886"
       y="147.9796"
       style="fill:#1f0000;fill-opacity:1">swp1</tspan></text>
  <rect
     style="fill:#eafff3;fill-opacity:1;stroke:none"
     id="rect3940-03-3"
     width="16.324129"
     height="9.4785271"
     x="285.14569"
     y="140.08084" />
  <text
     xml:space="preserve"
     style="font-size:6px;font-style:normal;font-variant:normal;font-weight:normal;font-stretch:normal;line-height:125%;letter-spacing:0px;word-spacing:0px;fill:#1f0000;fill-opacity:1;stroke:none;font-family:Droid Sans;-inkscape-font-specification:Droid Sans"
     x="286.72543"
     y="146.39986"
     id="text3158-6-1"
     sodipodi:linespacing="125%"><tspan
       sodipodi:role="line"
       id="tspan3160-42-56"
       x="286.72543"
       y="146.39986"
       style="fill:#1f0000;fill-opacity:1">swp1</tspan></text>
  <rect
     style="fill:#eafff3;fill-opacity:1;stroke:none"
     id="rect3940-03-30"
     width="16.324129"
     height="9.4785271"
     x="435.22235"
     y="139.55424" />
  <text
     xml:space="preserve"
     style="font-size:6px;font-style:normal;font-variant:normal;font-weight:normal;font-stretch:normal;line-height:125%;letter-spacing:0px;word-spacing:0px;fill:#1f0000;fill-opacity:1;stroke:none;font-family:Droid Sans;-inkscape-font-specification:Droid Sans"
     x="436.80212"
     y="145.87326"
     id="text3158-6-89"
     sodipodi:linespacing="125%"><tspan
       sodipodi:role="line"
       id="tspan3160-42-2"
       x="436.80212"
       y="145.87326"
       style="fill:#1f0000;fill-opacity:1">swp1</tspan></text>
  <rect
     style="fill:#eafff3;fill-opacity:1;stroke:none"
     id="rect3940-03-15"
     width="16.324129"
     height="9.4785271"
     x="475.76938"
     y="138.50107" />
  <text
     xml:space="preserve"
     style="font-size:6px;font-style:normal;font-variant:normal;font-weight:normal;font-stretch:normal;line-height:125%;letter-spacing:0px;word-spacing:0px;fill:#1f0000;fill-opacity:1;stroke:none;font-family:Droid Sans;-inkscape-font-specification:Droid Sans"
     x="477.34915"
     y="144.82008"
     id="text3158-6-7"
     sodipodi:linespacing="125%"><tspan
       sodipodi:role="line"
       id="tspan3160-42-3"
       x="477.34915"
       y="144.82008"
       style="fill:#1f0000;fill-opacity:1">swp1</tspan></text>
  <rect
     style="fill:#eafff3;fill-opacity:1;stroke:none"
     id="rect3940-03-2"
     width="16.324129"
     height="9.4785271"
     x="580.55975"
     y="221.70148" />
  <text
     xml:space="preserve"
     style="font-size:6px;font-style:normal;font-variant:normal;font-weight:normal;font-stretch:normal;line-height:125%;letter-spacing:0px;word-spacing:0px;fill:#1f0000;fill-opacity:1;stroke:none;font-family:Droid Sans;-inkscape-font-specification:Droid Sans"
     x="582.13953"
     y="228.02049"
     id="text3158-6-81"
     sodipodi:linespacing="125%"><tspan
       sodipodi:role="line"
       id="tspan3160-42-4"
       x="582.13953"
       y="228.02049"
       style="fill:#1f0000;fill-opacity:1">swp1</tspan></text>
  <rect
     style="fill:#eafff3;fill-opacity:1;stroke:none"
     id="rect3940-03-8"
     width="16.324129"
     height="9.4785271"
     x="555.8103"
     y="222.22806" />
  <text
     xml:space="preserve"
     style="font-size:6px;font-style:normal;font-variant:normal;font-weight:normal;font-stretch:normal;line-height:125%;letter-spacing:0px;word-spacing:0px;fill:#1f0000;fill-opacity:1;stroke:none;font-family:Droid Sans;-inkscape-font-specification:Droid Sans"
     x="557.39008"
     y="228.54707"
     id="text3158-6-2"
     sodipodi:linespacing="125%"><tspan
       sodipodi:role="line"
       id="tspan3160-42-6"
       x="557.39008"
       y="228.54707"
       style="fill:#1f0000;fill-opacity:1">swp1</tspan></text>
  <rect
     style="fill:#eafff3;fill-opacity:1;stroke:none"
     id="rect3940-03-63"
     width="16.324129"
     height="9.4785271"
     x="484.72134"
     y="221.70148" />
  <text
     xml:space="preserve"
     style="font-size:6px;font-style:normal;font-variant:normal;font-weight:normal;font-stretch:normal;line-height:125%;letter-spacing:0px;word-spacing:0px;fill:#1f0000;fill-opacity:1;stroke:none;font-family:Droid Sans;-inkscape-font-specification:Droid Sans"
     x="486.30109"
     y="228.02049"
     id="text3158-6-67"
     sodipodi:linespacing="125%"><tspan
       sodipodi:role="line"
       id="tspan3160-42-0"
       x="486.30109"
       y="228.02049"
       style="fill:#1f0000;fill-opacity:1">swp1</tspan></text>
  <rect
     style="fill:#eafff3;fill-opacity:1;stroke:none"
     id="rect3940-03-4"
     width="16.324129"
     height="9.4785271"
     x="458.91867"
     y="221.70148" />
  <text
     xml:space="preserve"
     style="font-size:6px;font-style:normal;font-variant:normal;font-weight:normal;font-stretch:normal;line-height:125%;letter-spacing:0px;word-spacing:0px;fill:#1f0000;fill-opacity:1;stroke:none;font-family:Droid Sans;-inkscape-font-specification:Droid Sans"
     x="460.49841"
     y="228.02049"
     id="text3158-6-3"
     sodipodi:linespacing="125%"><tspan
       sodipodi:role="line"
       id="tspan3160-42-51"
       x="460.49841"
       y="228.02049"
       style="fill:#1f0000;fill-opacity:1">swp1</tspan></text>
  <rect
     style="fill:#eafff3;fill-opacity:1;stroke:none"
     id="rect3940-03-35"
     width="16.324129"
     height="9.4785271"
     x="371.50558"
     y="222.22806" />
  <text
     xml:space="preserve"
     style="font-size:6px;font-style:normal;font-variant:normal;font-weight:normal;font-stretch:normal;line-height:125%;letter-spacing:0px;word-spacing:0px;fill:#1f0000;fill-opacity:1;stroke:none;font-family:Droid Sans;-inkscape-font-specification:Droid Sans"
     x="373.08533"
     y="228.54707"
     id="text3158-6-66"
     sodipodi:linespacing="125%"><tspan
       sodipodi:role="line"
       id="tspan3160-42-22"
       x="373.08533"
       y="228.54707"
       style="fill:#1f0000;fill-opacity:1">swp1</tspan></text>
  <rect
     style="fill:#eafff3;fill-opacity:1;stroke:none"
     id="rect3940-03-22"
     width="16.324129"
     height="9.4785271"
     x="280.93298"
     y="222.22806" />
  <text
     xml:space="preserve"
     style="font-size:6px;font-style:normal;font-variant:normal;font-weight:normal;font-stretch:normal;line-height:125%;letter-spacing:0px;word-spacing:0px;fill:#1f0000;fill-opacity:1;stroke:none;font-family:Droid Sans;-inkscape-font-specification:Droid Sans"
     x="282.51276"
     y="228.54707"
     id="text3158-6-0"
     sodipodi:linespacing="125%"><tspan
       sodipodi:role="line"
       id="tspan3160-42-17"
       x="282.51276"
       y="228.54707"
       style="fill:#1f0000;fill-opacity:1">swp1</tspan></text>
  <rect
     style="fill:#eafff3;fill-opacity:1;stroke:none"
     id="rect3940-03-37"
     width="16.324129"
     height="9.4785271"
     x="187.72751"
     y="220.12172" />
  <text
     xml:space="preserve"
     style="font-size:6px;font-style:normal;font-variant:normal;font-weight:normal;font-stretch:normal;line-height:125%;letter-spacing:0px;word-spacing:0px;fill:#1f0000;fill-opacity:1;stroke:none;font-family:Droid Sans;-inkscape-font-specification:Droid Sans"
     x="189.30725"
     y="226.44073"
     id="text3158-6-69"
     sodipodi:linespacing="125%"><tspan
       sodipodi:role="line"
       id="tspan3160-42-16"
       x="189.30725"
       y="226.44073"
       style="fill:#1f0000;fill-opacity:1">swp1</tspan></text>
  <rect
     style="fill:#eafff3;fill-opacity:1;stroke:none"
     id="rect3940-03-07"
     width="16.324129"
     height="9.4785271"
     x="99.261238"
     y="220.12172" />
  <text
     xml:space="preserve"
     style="font-size:6px;font-style:normal;font-variant:normal;font-weight:normal;font-stretch:normal;line-height:125%;letter-spacing:0px;word-spacing:0px;fill:#1f0000;fill-opacity:1;stroke:none;font-family:Droid Sans;-inkscape-font-specification:Droid Sans"
     x="100.841"
     y="226.44073"
     id="text3158-6-5"
     sodipodi:linespacing="125%"><tspan
       sodipodi:role="line"
       id="tspan3160-42-53"
       x="100.841"
       y="226.44073"
       style="fill:#1f0000;fill-opacity:1">swp1</tspan></text>
  <rect
     style="fill:#eafff3;fill-opacity:1;stroke:none"
     id="rect3940-03-302"
     width="16.324129"
     height="9.4785271"
     x="106.10683"
     y="314.3804" />
  <text
     xml:space="preserve"
     style="font-size:6px;font-style:normal;font-variant:normal;font-weight:normal;font-stretch:normal;line-height:125%;letter-spacing:0px;word-spacing:0px;fill:#1f0000;fill-opacity:1;stroke:none;font-family:Droid Sans;-inkscape-font-specification:Droid Sans"
     x="107.68659"
     y="320.69943"
     id="text3158-6-00"
     sodipodi:linespacing="125%"><tspan
       sodipodi:role="line"
       id="tspan3160-42-66"
       x="107.68659"
       y="320.69943"
       style="fill:#1f0000;fill-opacity:1">swp1</tspan></text>
  <rect
     style="fill:#eafff3;fill-opacity:1;stroke:none"
     id="rect3940-03-89"
     width="16.324129"
     height="9.4785271"
     x="83.463692"
     y="314.3804" />
  <text
     xml:space="preserve"
     style="font-size:6px;font-style:normal;font-variant:normal;font-weight:normal;font-stretch:normal;line-height:125%;letter-spacing:0px;word-spacing:0px;fill:#1f0000;fill-opacity:1;stroke:none;font-family:Droid Sans;-inkscape-font-specification:Droid Sans"
     x="85.043449"
     y="320.6994"
     id="text3158-6-15"
     sodipodi:linespacing="125%"><tspan
       sodipodi:role="line"
       id="tspan3160-42-67"
       x="85.043449"
       y="320.6994"
       style="fill:#1f0000;fill-opacity:1">swp1</tspan></text>
  <rect
     style="fill:#eafff3;fill-opacity:1;stroke:none"
     id="rect3940-03-7"
     width="16.324129"
     height="9.4785271"
     x="177.72238"
     y="314.90698" />
  <text
     xml:space="preserve"
     style="font-size:6px;font-style:normal;font-variant:normal;font-weight:normal;font-stretch:normal;line-height:125%;letter-spacing:0px;word-spacing:0px;fill:#1f0000;fill-opacity:1;stroke:none;font-family:Droid Sans;-inkscape-font-specification:Droid Sans"
     x="179.30214"
     y="321.22601"
     id="text3158-6-891"
     sodipodi:linespacing="125%"><tspan
       sodipodi:role="line"
       id="tspan3160-42-11"
       x="179.30214"
       y="321.22601"
       style="fill:#1f0000;fill-opacity:1">swp1</tspan></text>
  <rect
     style="fill:#eafff3;fill-opacity:1;stroke:none"
     id="rect3940-03-06"
     width="16.324129"
     height="9.4785271"
     x="198.78577"
     y="314.3804" />
  <text
     xml:space="preserve"
     style="font-size:6px;font-style:normal;font-variant:normal;font-weight:normal;font-stretch:normal;line-height:125%;letter-spacing:0px;word-spacing:0px;fill:#1f0000;fill-opacity:1;stroke:none;font-family:Droid Sans;-inkscape-font-specification:Droid Sans"
     x="200.36552"
     y="320.69943"
     id="text3158-6-06"
     sodipodi:linespacing="125%"><tspan
       sodipodi:role="line"
       id="tspan3160-42-533"
       x="200.36552"
       y="320.69943"
       style="fill:#1f0000;fill-opacity:1">swp1</tspan></text>
  <rect
     style="fill:#eafff3;fill-opacity:1;stroke:none"
     id="rect3940-03-80"
     width="16.324129"
     height="9.4785271"
     x="281.45959"
     y="314.90698" />
  <text
     xml:space="preserve"
     style="font-size:6px;font-style:normal;font-variant:normal;font-weight:normal;font-stretch:normal;line-height:125%;letter-spacing:0px;word-spacing:0px;fill:#1f0000;fill-opacity:1;stroke:none;font-family:Droid Sans;-inkscape-font-specification:Droid Sans"
     x="283.03934"
     y="321.22601"
     id="text3158-6-03"
     sodipodi:linespacing="125%"><tspan
       sodipodi:role="line"
       id="tspan3160-42-63"
       x="283.03934"
       y="321.22601"
       style="fill:#1f0000;fill-opacity:1">swp1</tspan></text>
  <rect
     style="fill:#eafff3;fill-opacity:1;stroke:none"
     id="rect3940-03-38"
     width="16.324129"
     height="9.4785271"
     x="307.26224"
     y="314.90698" />
  <text
     xml:space="preserve"
     style="font-size:6px;font-style:normal;font-variant:normal;font-weight:normal;font-stretch:normal;line-height:125%;letter-spacing:0px;word-spacing:0px;fill:#1f0000;fill-opacity:1;stroke:none;font-family:Droid Sans;-inkscape-font-specification:Droid Sans"
     x="308.84201"
     y="321.22598"
     id="text3158-6-666"
     sodipodi:linespacing="125%"><tspan
       sodipodi:role="line"
       id="tspan3160-42-24"
       x="308.84201"
       y="321.22598"
       style="fill:#1f0000;fill-opacity:1">swp1</tspan></text>
  <rect
     style="fill:#eafff3;fill-opacity:1;stroke:none"
     id="rect3940-03-639"
     width="16.324129"
     height="9.4785271"
     x="376.24484"
     y="315.43359" />
  <text
     xml:space="preserve"
     style="font-size:6px;font-style:normal;font-variant:normal;font-weight:normal;font-stretch:normal;line-height:125%;letter-spacing:0px;word-spacing:0px;fill:#1f0000;fill-opacity:1;stroke:none;font-family:Droid Sans;-inkscape-font-specification:Droid Sans"
     x="377.82462"
     y="321.75259"
     id="text3158-6-22"
     sodipodi:linespacing="125%"><tspan
       sodipodi:role="line"
       id="tspan3160-42-8"
       x="377.82462"
       y="321.75259"
       style="fill:#1f0000;fill-opacity:1">swp1</tspan></text>
  <rect
     style="fill:#eafff3;fill-opacity:1;stroke:none"
     id="rect3940-03-221"
     width="16.324129"
     height="9.4785271"
     x="399.94116"
     y="314.3804" />
  <text
     xml:space="preserve"
     style="font-size:6px;font-style:normal;font-variant:normal;font-weight:normal;font-stretch:normal;line-height:125%;letter-spacing:0px;word-spacing:0px;fill:#1f0000;fill-opacity:1;stroke:none;font-family:Droid Sans;-inkscape-font-specification:Droid Sans"
     x="401.5209"
     y="320.6994"
     id="text3158-6-55"
     sodipodi:linespacing="125%"><tspan
       sodipodi:role="line"
       id="tspan3160-42-227"
       x="401.5209"
       y="320.6994"
       style="fill:#1f0000;fill-opacity:1">swp1</tspan></text>
  <rect
     style="fill:#eafff3;fill-opacity:1;stroke:none"
     id="rect3940-03-87"
     width="16.324129"
     height="9.4785271"
     x="546.85834"
     y="456.03171" />
  <text
     xml:space="preserve"
     style="font-size:6px;font-style:normal;font-variant:normal;font-weight:normal;font-stretch:normal;line-height:125%;letter-spacing:0px;word-spacing:0px;fill:#1f0000;fill-opacity:1;stroke:none;font-family:Droid Sans;-inkscape-font-specification:Droid Sans"
     x="548.43811"
     y="462.35071"
     id="text3158-6-037"
     sodipodi:linespacing="125%"><tspan
       sodipodi:role="line"
       id="tspan3160-42-23"
       x="548.43811"
       y="462.35071"
       style="fill:#1f0000;fill-opacity:1">swp1</tspan></text>
  <rect
     style="fill:#eafff3;fill-opacity:1;stroke:none"
     id="rect3940-03-08"
     width="16.324129"
     height="9.4785271"
     x="518.42273"
     y="456.55832" />
  <text
     xml:space="preserve"
     style="font-size:6px;font-style:normal;font-variant:normal;font-weight:normal;font-stretch:normal;line-height:125%;letter-spacing:0px;word-spacing:0px;fill:#1f0000;fill-opacity:1;stroke:none;font-family:Droid Sans;-inkscape-font-specification:Droid Sans"
     x="520.0025"
     y="462.87732"
     id="text3158-6-74"
     sodipodi:linespacing="125%"><tspan
       sodipodi:role="line"
       id="tspan3160-42-83"
       x="520.0025"
       y="462.87732"
       style="fill:#1f0000;fill-opacity:1">swp1</tspan></text>
  <rect
     style="fill:#eafff3;fill-opacity:1;stroke:none"
     id="rect3940-03-25"
     width="16.324129"
     height="9.4785271"
     x="412.05261"
     y="454.45197" />
  <text
     xml:space="preserve"
     style="font-size:6px;font-style:normal;font-variant:normal;font-weight:normal;font-stretch:normal;line-height:125%;letter-spacing:0px;word-spacing:0px;fill:#1f0000;fill-opacity:1;stroke:none;font-family:Droid Sans;-inkscape-font-specification:Droid Sans"
     x="413.63235"
     y="460.77097"
     id="text3158-6-76"
     sodipodi:linespacing="125%"><tspan
       sodipodi:role="line"
       id="tspan3160-42-32"
       x="413.63235"
       y="460.77097"
       style="fill:#1f0000;fill-opacity:1">swp1</tspan></text>
  <rect
     style="fill:#eafff3;fill-opacity:1;stroke:none"
     id="rect3940-03-75"
     width="16.324129"
     height="9.4785271"
     x="383.09045"
     y="453.92538" />
  <text
     xml:space="preserve"
     style="font-size:6px;font-style:normal;font-variant:normal;font-weight:normal;font-stretch:normal;line-height:125%;letter-spacing:0px;word-spacing:0px;fill:#1f0000;fill-opacity:1;stroke:none;font-family:Droid Sans;-inkscape-font-specification:Droid Sans"
     x="384.67023"
     y="460.24442"
     id="text3158-6-4"
     sodipodi:linespacing="125%"><tspan
       sodipodi:role="line"
       id="tspan3160-42-79"
       x="384.67023"
       y="460.24442"
       style="fill:#1f0000;fill-opacity:1">swp1</tspan></text>
  <rect
     style="fill:#eafff3;fill-opacity:1;stroke:none"
     id="rect3940-03-807"
     width="16.324129"
     height="9.4785271"
     x="273.56079"
     y="454.45197" />
  <text
     xml:space="preserve"
     style="font-size:6px;font-style:normal;font-variant:normal;font-weight:normal;font-stretch:normal;line-height:125%;letter-spacing:0px;word-spacing:0px;fill:#1f0000;fill-opacity:1;stroke:none;font-family:Droid Sans;-inkscape-font-specification:Droid Sans"
     x="275.14056"
     y="460.77097"
     id="text3158-6-52"
     sodipodi:linespacing="125%"><tspan
       sodipodi:role="line"
       id="tspan3160-42-9"
       x="275.14056"
       y="460.77097"
       style="fill:#1f0000;fill-opacity:1">swp1</tspan></text>
  <rect
     style="fill:#eafff3;fill-opacity:1;stroke:none"
     id="rect3940-03-23"
     width="16.324129"
     height="9.4785271"
     x="245.12521"
     y="453.3988" />
  <text
     xml:space="preserve"
     style="font-size:6px;font-style:normal;font-variant:normal;font-weight:normal;font-stretch:normal;line-height:125%;letter-spacing:0px;word-spacing:0px;fill:#1f0000;fill-opacity:1;stroke:none;font-family:Droid Sans;-inkscape-font-specification:Droid Sans"
     x="246.70499"
     y="459.7178"
     id="text3158-6-84"
     sodipodi:linespacing="125%"><tspan
       sodipodi:role="line"
       id="tspan3160-42-667"
       x="246.70499"
       y="459.7178"
       style="fill:#1f0000;fill-opacity:1">swp1</tspan></text>
  <rect
     style="fill:#eafff3;fill-opacity:1;stroke:none"
     id="rect3940-03-087"
     width="16.324129"
     height="9.4785271"
     x="142.96779"
     y="454.97855" />
  <text
     xml:space="preserve"
     style="font-size:6px;font-style:normal;font-variant:normal;font-weight:normal;font-stretch:normal;line-height:125%;letter-spacing:0px;word-spacing:0px;fill:#1f0000;fill-opacity:1;stroke:none;font-family:Droid Sans;-inkscape-font-specification:Droid Sans"
     x="144.54755"
     y="461.29758"
     id="text3158-6-92"
     sodipodi:linespacing="125%"><tspan
       sodipodi:role="line"
       id="tspan3160-42-64"
       x="144.54755"
       y="461.29758"
       style="fill:#1f0000;fill-opacity:1">swp1</tspan></text>
  <rect
     style="fill:#eafff3;fill-opacity:1;stroke:none"
     id="rect3940-03-631"
     width="16.324129"
     height="9.4785271"
     x="112.42586"
     y="453.39877" />
  <text
     xml:space="preserve"
     style="font-size:6px;font-style:normal;font-variant:normal;font-weight:normal;font-stretch:normal;line-height:125%;letter-spacing:0px;word-spacing:0px;fill:#1f0000;fill-opacity:1;stroke:none;font-family:Droid Sans;-inkscape-font-specification:Droid Sans"
     x="114.00562"
     y="459.7178"
     id="text3158-6-26"
     sodipodi:linespacing="125%"><tspan
       sodipodi:role="line"
       id="tspan3160-42-31"
       x="114.00562"
       y="459.7178"
       style="fill:#1f0000;fill-opacity:1">swp1</tspan></text>
</svg>
